<?xml version="1.0" encoding="UTF-8" standalone="no"?>
<svg
   xmlns:dc="http://purl.org/dc/elements/1.1/"
   xmlns:cc="http://creativecommons.org/ns#"
   xmlns:rdf="http://www.w3.org/1999/02/22-rdf-syntax-ns#"
   xmlns:svg="http://www.w3.org/2000/svg"
   xmlns="http://www.w3.org/2000/svg"
   xml:space="preserve"
   width="253px"
   height="70px"
   version="1.1"
   style="shape-rendering:geometricPrecision; text-rendering:geometricPrecision; image-rendering:optimizeQuality; fill-rule:evenodd; clip-rule:evenodd"
   viewBox="0 0 40.09 11.03"
   id="svg50"><metadata
   id="metadata54"><rdf:RDF><cc:Work
       rdf:about=""><dc:format>image/svg+xml</dc:format><dc:type
         rdf:resource="http://purl.org/dc/dcmitype/StillImage" /><dc:title></dc:title></cc:Work></rdf:RDF></metadata>
 <defs
   id="defs4">
  <style
   type="text/css"
   id="style2">
   <![CDATA[
    .fil1 {fill:#2891B4;fill-rule:nonzero}
    .fil0 {fill:#898988;fill-rule:nonzero}
   ]]>
  </style>
 <style
   id="style4567">.b{fill:#e84249;}.c{fill:#120e0b;}</style></defs>
 
<rect
   transform="scale(1,-1)"
   y="-10.864382"
   x="0.23265536"
   height="10.671237"
   width="39.731258"
   id="rect843"
   style="opacity:0;fill:#f9f9f9;fill-opacity:1;stroke:#000000;stroke-width:0.35874176;stroke-miterlimit:4;stroke-dasharray:none;stroke-opacity:0" /><g
   id="g4661"
   transform="matrix(0.13990149,0,0,0.13990149,-5.0019784,-3.0089977)"
   style="clip-rule:evenodd;fill-rule:evenodd;image-rendering:optimizeQuality;shape-rendering:geometricPrecision;text-rendering:geometricPrecision"><path
     id="path4571"
     d="M 71.83,85.55 H 36.15 V 60.62 L 53.99,44.51 71.83,60.62 Z M 45.25,76.44 H 62.72 V 64.67 l -8.74,-7.89 -8.74,7.89 v 11.77 z"
     class="b"
     style="fill:#e84249" /><g
     id="g4625"><path
       id="path4573"
       d="m 96.77,42.05 c -0.63,-2.21 -2.12,-5.62 -5.96,-5.62 -2.52,0 -4.01,1.64 -4.01,3.33 0,1.92 1.6,2.84 3.93,3.58 l 2.44,0.77 c 3.87,1.23 5.45,3.21 5.45,6.28 0,3.53 -3.5,6.31 -7.45,6.31 -2.26,0 -3.64,-0.6 -4.87,-1.32 l -1.92,0.66 v 0.77 h -0.63 v -6.36 h 0.43 c 0.54,1.98 2.49,5.62 7,5.62 2.81,0 4.76,-1.84 4.76,-3.99 0,-1.98 -1.06,-2.95 -3.93,-3.87 l -2.7,-0.86 c -3.07,-0.98 -5.16,-2.87 -5.16,-5.82 0,-2.75 2.47,-5.74 6.68,-5.74 1.72,0 2.92,0.46 4.13,1.23 l 1.63,-0.57 v -0.77 h 0.63 v 6.37 h -0.43 z"
       class="c"
       style="fill:#120e0b" /><path
       id="path4575"
       d="m 111.63,45.15 -5.39,11.78 h -0.29 L 100.56,45.15 H 98.9 v -0.63 h 7 v 0.63 h -2.06 l 3.56,7.71 2.72,-5.99 -1.23,-1.72 h -1.23 v -0.63 h 5.65 v 0.63 h -1.66 z"
       class="c"
       style="fill:#120e0b" /><path
       id="path4577"
       d="m 123.9,48.65 v 6.48 c 0,0.77 0.49,0.98 1,0.4 0.63,-0.77 0.6,-2.07 0.6,-3.04 h 0.63 c 0,1.03 -0.03,1.92 -0.29,2.64 -0.37,0.98 -1.09,1.58 -2.15,1.58 -1.52,0 -2.44,-1.32 -2.44,-2.98 h -0.14 c -0.52,1.69 -1.78,2.98 -3.96,2.98 -1.95,0 -3.73,-1 -3.73,-3.04 0,-2.44 2.55,-3.1 4.3,-3.47 l 1.78,-0.37 c 1,-0.2 1.38,-0.8 1.38,-1.66 v -1.52 c 0,-1.29 -0.69,-1.86 -2.21,-1.86 -0.89,0 -2.15,0.29 -2.84,1.12 1.09,0.06 1.72,0.75 1.72,1.63 0,0.88 -0.75,1.63 -1.69,1.63 -0.94,0 -1.78,-0.75 -1.78,-1.72 0,-2.03 2.41,-3.3 4.64,-3.3 4.01,0 5.16,1.78 5.16,4.5 z m -3.1,1.32 c -0.14,0.14 -0.37,0.32 -0.8,0.4 l -1.69,0.34 c -1.35,0.29 -1.63,1.26 -1.63,2.52 v 0.66 c 0,1.26 0.4,2.01 1.38,2.01 1.49,0 2.84,-2.07 2.84,-4.36 v -1.58 h -0.09 z"
       class="c"
       style="fill:#120e0b" /><path
       id="path4579"
       d="m 131.05,55.7 h 4.87 l 1.98,-2.55 0.11,-0.8 h 0.63 l -0.57,3.99 h -10.78 v -0.43 l 7.14,-10.75 h -4.24 l -1.78,2.32 v 0.86 h -0.63 v -3.81 h 10.41 v 0.43 l -7.14,10.75 z"
       class="c"
       style="fill:#120e0b" /><path
       id="path4581"
       d="m 151.46,49.57 h -8.43 v 1.58 c 0,2.78 0.77,4.93 3.24,4.93 2.06,0 3.76,-1.26 4.44,-3.18 l 0.6,0.26 c -0.75,2.12 -2.75,3.56 -5.05,3.56 -3.5,0 -6.48,-2.52 -6.48,-6.39 0,-3.64 3.27,-6.16 6.19,-6.16 2.92,0 5.48,1.69 5.48,5.42 z m -8.4,-0.63 h 5.28 v -1.15 c 0,-2.06 -1.06,-3.01 -2.38,-3.01 -1.98,0 -2.78,2.03 -2.9,4.16 z"
       class="c"
       style="fill:#120e0b" /><path
       id="path4583"
       d="m 161.76,46.38 -0.77,-1.23 h -1.23 v -0.63 h 5.88 v 0.63 h -1.35 l -3.61,2.98 5.13,7.57 h 1.58 v 0.63 h -7.14 V 55.7 h 1.89 l -3.78,-5.65 -1.35,1.12 v 4.53 h 2.01 v 0.63 H 152 V 55.7 h 2.01 V 37.41 l -2.09,-0.66 v -0.37 l 4.85,-1.58 h 0.26 v 15.51 l 4.76,-3.93 z"
       class="c"
       style="fill:#120e0b" /><path
       id="path4585"
       d="m 186.71,50.43 c 0,3.7 -3.21,6.28 -6.37,6.28 -3.16,0 -6.36,-2.58 -6.36,-6.28 0,-3.7 3.21,-6.28 6.36,-6.28 3.15,0 6.37,2.58 6.37,6.28 z m -9.49,-0.72 v 1.43 c 0,3.84 1.55,4.93 3.12,4.93 1.57,0 3.13,-1.09 3.13,-4.93 v -1.43 c 0,-3.84 -1.55,-4.93 -3.13,-4.93 -1.58,0 -3.12,1.09 -3.12,4.93 z"
       class="c"
       style="fill:#120e0b" /><path
       id="path4587"
       d="m 192.19,46.93 c 0.63,-1.32 2.15,-2.78 4.59,-2.78 3.07,0 5.42,2.72 5.42,6.28 0,3.56 -2.35,6.28 -5.42,6.28 -2.44,0 -3.96,-1.46 -4.59,-2.78 h -0.09 v 2.41 h -5.02 v -0.63 h 2.01 V 37.42 L 187,36.76 v -0.37 l 4.85,-1.58 h 0.26 v 12.13 h 0.09 z m -0.09,3.5 c 0,4.16 2.38,5.48 3.96,5.48 1.58,0 2.9,-1.18 2.9,-4.76 v -1.43 c 0,-3.58 -1.32,-4.76 -2.9,-4.76 -1.58,0 -3.96,1.32 -3.96,5.48 z"
       class="c"
       style="fill:#120e0b" /><path
       id="path4589"
       d="m 215.19,47.7 c 0,1 -0.77,1.81 -1.78,1.81 -0.95,0 -1.72,-0.77 -1.72,-1.66 0,-0.89 0.77,-1.66 1.78,-1.66 -0.66,-0.95 -1.84,-1.4 -3.04,-1.4 -1.86,0 -3.27,1.15 -3.27,4.93 v 1.43 c 0,3.78 1.41,4.93 3.35,4.93 1.94,0 3.64,-1.26 4.33,-3.18 l 0.6,0.26 c -0.75,2.12 -2.75,3.56 -5.05,3.56 -3.5,0 -6.48,-2.52 -6.48,-6.39 0,-3.64 3.24,-6.16 6.62,-6.16 2.32,0 4.65,1.52 4.65,3.55 z"
       class="c"
       style="fill:#120e0b" /><path
       id="path4591"
       d="m 223.42,55.7 v 0.63 H 216.4 V 55.7 h 2.01 v -9.49 h -2.09 v -0.37 l 4.85,-1.58 h 0.26 V 55.7 h 2.01 z m -4.3,-13.19 -0.37,-0.2 2.58,-4.93 h 2.84 v 0.23 z"
       class="c"
       style="fill:#120e0b" /><path
       id="path4593"
       d="m 103.05,65.57 -2.04,3.04 -7,17 H 93.58 L 84.75,65.57 h -2.47 v -0.63 h 9.35 v 0.63 h -2.64 l 6.51,14.77 4.82,-11.7 -1.26,-3.07 H 97.6 v -0.63 h 6.74 v 0.63 z"
       class="c"
       style="fill:#120e0b" /><path
       id="path4595"
       d="m 114.61,73.83 -6.54,17.66 h -4.39 v -0.26 l 5.59,-4.93 -5.68,-12.47 H 101.9 V 73.2 h 7.28 v 0.63 h -2.35 l 3.93,8.49 2.47,-6.65 -1.32,-1.84 h -1.23 V 73.2 h 5.59 v 0.63 z m -5.96,-2.64 -0.37,-0.2 2.58,-4.93 h 2.84 v 0.23 z"
       class="c"
       style="fill:#120e0b" /><path
       id="path4597"
       d="m 127.26,76.38 c 0,1 -0.77,1.81 -1.78,1.81 -0.95,0 -1.72,-0.77 -1.72,-1.66 0,-0.89 0.77,-1.66 1.78,-1.66 -0.66,-0.95 -1.84,-1.4 -3.04,-1.4 -1.86,0 -3.27,1.15 -3.27,4.93 v 1.43 c 0,3.78 1.41,4.93 3.35,4.93 1.94,0 3.64,-1.26 4.33,-3.18 l 0.6,0.26 c -0.75,2.12 -2.75,3.56 -5.05,3.56 -3.5,0 -6.48,-2.52 -6.48,-6.39 0,-3.64 3.24,-6.16 6.62,-6.16 2.32,0 4.65,1.52 4.65,3.55 z"
       class="c"
       style="fill:#120e0b" /><path
       id="path4599"
       d="m 132.99,75.69 c 0.57,-1.41 1.89,-2.87 4.24,-2.87 2.35,0 4.01,1.43 4.01,4.33 v 7.23 h 2.01 v 0.63 h -7.02 v -0.63 h 2.01 v -8.52 c 0,-1.29 -0.43,-2.24 -1.78,-2.24 -1.95,0 -3.56,2.35 -3.56,5.79 v 4.96 h 2.01 V 85 h -7.02 v -0.63 h 2.01 V 66.08 l -2.09,-0.66 v -0.37 l 4.85,-1.58 h 0.26 v 12.21 h 0.09 z"
       class="c"
       style="fill:#120e0b" /><path
       id="path4601"
       d="m 156.28,79.1 c 0,3.7 -3.21,6.28 -6.37,6.28 -3.16,0 -6.36,-2.58 -6.36,-6.28 0,-3.7 3.21,-6.28 6.36,-6.28 3.15,0 6.37,2.58 6.37,6.28 z m -9.49,-0.72 v 1.43 c 0,3.84 1.55,4.93 3.12,4.93 1.57,0 3.13,-1.09 3.13,-4.93 v -1.43 c 0,-3.84 -1.55,-4.93 -3.13,-4.93 -1.58,0 -3.12,1.09 -3.12,4.93 z"
       class="c"
       style="fill:#120e0b" /><path
       id="path4603"
       d="m 173.12,84.38 v 0.63 h -5.02 v -2.35 h -0.09 c -0.66,1.26 -2.09,2.72 -4.39,2.72 -3.07,0 -5.62,-2.72 -5.62,-6.28 0,-3.56 2.55,-6.28 5.62,-6.28 2.29,0 3.73,1.46 4.39,2.72 h 0.09 v -9.46 l -2.09,-0.66 v -0.37 l 4.85,-1.58 h 0.26 v 20.9 h 2.01 z m -11.87,-5.99 v 1.43 c 0,3.73 1.49,4.76 3.07,4.76 1.58,0 3.78,-1.52 3.78,-5.48 0,-3.96 -2.21,-5.48 -3.78,-5.48 -1.57,0 -3.07,1.03 -3.07,4.76 z"
       class="c"
       style="fill:#120e0b" /><path
       id="path4605"
       d="m 187.43,77.15 v 7.23 h 2.01 v 0.63 h -7.02 v -0.63 h 2.01 v -8.52 c 0,-1.29 -0.43,-2.24 -1.78,-2.24 -1.95,0 -3.56,2.35 -3.56,5.79 v 4.96 h 2.01 V 85 h -7.02 v -0.63 h 2.01 V 74.88 H 174 v -0.37 l 4.85,-1.58 h 0.26 v 2.75 h 0.09 c 0.57,-1.41 1.89,-2.87 4.24,-2.87 2.35,0 4.01,1.43 4.01,4.33 z"
       class="c"
       style="fill:#120e0b" /><path
       id="path4607"
       d="m 197.41,84.38 v 0.63 h -7.02 v -0.63 h 2.01 v -9.49 h -2.09 v -0.37 l 4.85,-1.58 h 0.26 v 11.44 h 2.01 z m -4.3,-13.19 -0.37,-0.2 2.58,-4.93 h 2.84 v 0.23 z"
       class="c"
       style="fill:#120e0b" /><path
       id="path4609"
       d="m 222.79,65.57 -7.17,6.62 8.6,12.19 h 2.21 v 0.63 h -9.63 v -0.63 h 2.69 l -6.62,-9.63 -0.92,0.86 v 8.77 h 2.75 v 0.63 h -9.46 v -0.63 h 2.75 V 65.57 h -2.75 v -0.63 h 9.46 v 0.63 h -2.75 v 9.15 l 7.66,-7.17 -1.23,-1.98 h -1.43 v -0.63 h 7.74 v 0.63 h -1.89 z"
       class="c"
       style="fill:#120e0b" /><path
       id="path4611"
       d="m 238.79,75.55 c 0,1 -0.8,1.78 -1.81,1.78 -0.92,0 -1.66,-0.75 -1.66,-1.63 0,-0.88 0.69,-1.55 1.52,-1.63 -0.77,-0.8 -2.18,-0.6 -3.07,0.32 -1.06,1.09 -1.66,3.24 -1.66,5.05 v 4.96 h 2.01 v 0.63 H 227.1 V 84.4 h 2.01 v -9.49 h -2.09 v -0.37 l 4.85,-1.58 h 0.26 v 2.75 h 0.09 c 0.54,-1.32 1.72,-2.87 3.73,-2.87 1.15,0 2.87,0.86 2.87,2.72 z"
       class="c"
       style="fill:#120e0b" /><path
       id="path4613"
       d="m 248.51,75.06 -0.77,-1.23 h -1.23 V 73.2 h 5.88 v 0.63 h -1.35 l -3.61,2.98 5.13,7.57 h 1.58 v 0.63 H 247 v -0.63 h 1.89 l -3.78,-5.65 -1.35,1.12 v 4.53 h 2.01 v 0.63 h -7.02 v -0.63 h 2.01 V 66.09 l -2.09,-0.66 v -0.37 l 4.85,-1.58 h 0.26 v 15.51 l 4.76,-3.93 z"
       class="c"
       style="fill:#120e0b" /><path
       id="path4615"
       d="m 266.58,79.1 c 0,3.7 -3.21,6.28 -6.37,6.28 -3.16,0 -6.36,-2.58 -6.36,-6.28 0,-3.7 3.21,-6.28 6.36,-6.28 3.15,0 6.37,2.58 6.37,6.28 z m -9.49,-0.72 v 1.43 c 0,3.84 1.55,4.93 3.12,4.93 1.57,0 3.13,-1.09 3.13,-4.93 v -1.43 c 0,-3.84 -1.55,-4.93 -3.13,-4.93 -1.58,0 -3.12,1.09 -3.12,4.93 z"
       class="c"
       style="fill:#120e0b" /><path
       id="path4617"
       d="m 281.17,77.15 v 7.23 h 2.01 v 0.63 h -7.02 v -0.63 h 2.01 v -8.52 c 0,-1.29 -0.43,-2.24 -1.78,-2.24 -1.95,0 -3.56,2.35 -3.56,5.79 v 4.96 h 2.01 V 85 h -7.02 v -0.63 h 2.01 v -9.49 h -2.09 v -0.37 l 4.85,-1.58 h 0.26 v 2.75 h 0.09 c 0.57,-1.41 1.89,-2.87 4.24,-2.87 2.35,0 4.01,1.43 4.01,4.33 z"
       class="c"
       style="fill:#120e0b" /><path
       id="path4619"
       d="m 296.35,79.1 c 0,3.7 -3.21,6.28 -6.37,6.28 -3.16,0 -6.36,-2.58 -6.36,-6.28 0,-3.7 3.21,-6.28 6.36,-6.28 3.15,0 6.37,2.58 6.37,6.28 z m -9.49,-0.72 v 1.43 c 0,3.84 1.55,4.93 3.12,4.93 1.57,0 3.13,-1.09 3.13,-4.93 v -1.43 c 0,-3.84 -1.55,-4.93 -3.13,-4.93 -1.58,0 -3.12,1.09 -3.12,4.93 z"
       class="c"
       style="fill:#120e0b" /><path
       id="path4621"
       d="m 307.22,75.55 c 0,0.77 -0.63,1.35 -1.41,1.35 -0.78,0 -1.35,-0.57 -1.35,-1.29 0,-0.57 0.34,-1.15 1.03,-1.32 -0.66,-0.6 -1.84,-0.83 -2.84,-0.83 -1.78,0 -2.81,0.72 -2.81,1.75 0,1.03 0.86,1.63 2.26,1.98 l 2.18,0.52 c 2.41,0.57 3.73,1.6 3.73,3.67 0,2.44 -2.47,4.01 -5.28,4.01 -2.61,0 -5.1,-1.15 -5.1,-3.01 0,-0.83 0.69,-1.46 1.55,-1.46 0.86,0 1.49,0.63 1.49,1.41 0,0.66 -0.46,1.26 -1.2,1.43 0.63,0.57 1.69,1 3.41,1 1.92,0 3.27,-0.86 3.27,-2.09 0,-1.03 -0.77,-1.58 -2.61,-2.04 l -2.12,-0.52 c -2.15,-0.52 -3.41,-1.86 -3.41,-3.53 0,-2.01 1.78,-3.76 4.82,-3.76 2.38,0 4.39,1.09 4.39,2.72 z m -3.3,-4.36 h -2.24 l -2.9,-4.85 0.37,-0.26 3.64,3.61 3.64,-3.61 0.37,0.26 -2.9,4.85 z"
       class="c"
       style="fill:#120e0b" /><path
       id="path4623"
       d="m 321.41,78.24 h -8.43 v 1.58 c 0,2.78 0.77,4.93 3.24,4.93 2.06,0 3.76,-1.26 4.44,-3.18 l 0.6,0.26 c -0.75,2.12 -2.75,3.56 -5.05,3.56 -3.5,0 -6.48,-2.52 -6.48,-6.39 0,-3.64 3.27,-6.16 6.19,-6.16 2.92,0 5.48,1.69 5.48,5.42 z m -8.4,-0.63 h 5.28 v -1.15 c 0,-2.06 -1.06,-3.01 -2.38,-3.01 -1.98,0 -2.78,2.03 -2.9,4.16 z"
       class="c"
       style="fill:#120e0b" /></g></g></svg>